<svg width="257" height="194" viewBox="0 0 257 194" fill="none" xmlns="http://www.w3.org/2000/svg">
<g opacity="0.8" clip-path="url(#clip0)">
<path d="M99.5568 144.596L54.106 113.906L31.0063 148.202L76.4572 178.892L99.5568 144.596Z" fill="#F2F2F2"/>
<path d="M29.3669 174.098L28.8962 173.855C35.0091 162.022 31.7403 146.655 27.922 135.848C25.3292 128.584 22.0222 121.596 18.0496 114.986L18.4972 114.703C22.4905 121.346 25.8147 128.37 28.4211 135.671C32.2747 146.577 35.5665 162.097 29.3669 174.098Z" fill="#2F2E41"/>
<path d="M33.8994 114.797L30.4634 133.625L30.9843 133.721L34.4203 114.892L33.8994 114.797Z" fill="#2F2E41"/>
<path d="M11.0522 130.839L10.6643 131.2L28.4081 150.292L28.796 149.931L11.0522 130.839Z" fill="#2F2E41"/>
<path d="M42.9511 151.811L33.9509 164.277L34.3802 164.588L43.3804 152.122L42.9511 151.811Z" fill="#2F2E41"/>
<path d="M35.4877 109.806C36.9503 109.806 38.136 108.619 38.136 107.155C38.136 105.69 36.9503 104.503 35.4877 104.503C34.0251 104.503 32.8394 105.69 32.8394 107.155C32.8394 108.619 34.0251 109.806 35.4877 109.806Z" fill="#3F3D56"/>
<path d="M6.62075 130.224C8.08338 130.224 9.26908 129.037 9.26908 127.572C9.26908 126.108 8.08338 124.921 6.62075 124.921C5.15811 124.921 3.97241 126.108 3.97241 127.572C3.97241 129.037 5.15811 130.224 6.62075 130.224Z" fill="#3F3D56"/>
<path d="M18.2736 132.876C19.7362 132.876 20.9219 131.689 20.9219 130.224C20.9219 128.76 19.7362 127.573 18.2736 127.573C16.8109 127.573 15.6252 128.76 15.6252 130.224C15.6252 131.689 16.8109 132.876 18.2736 132.876Z" fill="#3F3D56"/>
<path d="M12.9769 143.217C14.4396 143.217 15.6253 142.03 15.6253 140.566C15.6253 139.101 14.4396 137.914 12.9769 137.914C11.5143 137.914 10.3286 139.101 10.3286 140.566C10.3286 142.03 11.5143 143.217 12.9769 143.217Z" fill="#3F3D56"/>
<path d="M46.081 149.847C47.5436 149.847 48.7293 148.659 48.7293 147.195C48.7293 145.73 47.5436 144.543 46.081 144.543C44.6183 144.543 43.4326 145.73 43.4326 147.195C43.4326 148.659 44.6183 149.847 46.081 149.847Z" fill="#3F3D56"/>
<path d="M37.3415 152.763C38.8041 152.763 39.9898 151.576 39.9898 150.112C39.9898 148.647 38.8041 147.46 37.3415 147.46C35.8788 147.46 34.6931 148.647 34.6931 150.112C34.6931 151.576 35.8788 152.763 37.3415 152.763Z" fill="#3F3D56"/>
<path d="M43.4328 161.249C44.8954 161.249 46.0811 160.061 46.0811 158.597C46.0811 157.133 44.8954 155.945 43.4328 155.945C41.9701 155.945 40.7844 157.133 40.7844 158.597C40.7844 160.061 41.9701 161.249 43.4328 161.249Z" fill="#3F3D56"/>
<path d="M15.6251 112.988C17.0878 112.988 18.2735 111.801 18.2735 110.337C18.2735 108.872 17.0878 107.685 15.6251 107.685C14.1625 107.685 12.9768 108.872 12.9768 110.337C12.9768 111.801 14.1625 112.988 15.6251 112.988Z" fill="#3F3D56"/>
<path d="M135.595 176.894C141.213 182.924 135.112 204.007 67.7974 188.296C31.3315 179.785 0 179.969 0 176.894C0 173.818 30.3539 177.159 67.7974 177.159C105.241 177.159 133.5 174.645 135.595 176.894Z" fill="#3F3D56"/>
<path opacity="0.1" d="M135.595 176.894C141.213 182.924 135.112 204.007 67.7974 188.296C31.3315 179.785 0 179.969 0 176.894C0 173.818 30.3539 177.159 67.7974 177.159C105.241 177.159 133.5 174.645 135.595 176.894Z" fill="black"/>
<path d="M135.595 176.894C141.213 182.924 135.112 198.173 67.7974 182.462C31.3315 173.951 0 179.969 0 176.894C0 173.818 30.3539 171.325 67.7974 171.325C105.241 171.325 133.5 174.645 135.595 176.894Z" fill="#3F3D56"/>
<path d="M65.0885 42.1885H68.1348C69.0951 42.1885 70.046 42.3779 70.9332 42.7458C71.8204 43.1138 72.6266 43.6531 73.3056 44.333C73.9846 45.0129 74.5233 45.82 74.8908 46.7084C75.2583 47.5967 75.4474 48.5488 75.4474 49.5103V59.8823H57.7759V49.5103C57.7759 47.5684 58.5463 45.7061 59.9177 44.333C61.2891 42.9599 63.1491 42.1885 65.0885 42.1885H65.0885Z" fill="#2F2E41"/>
<path d="M63.3798 56.462C63.3798 56.462 64.1207 62.3969 62.4537 62.7678C60.7866 63.1387 60.0457 65.3643 60.0457 65.3643L65.6026 68.8881L71.3447 67.7754L70.789 63.5097C70.789 63.5097 69.3072 59.244 70.0481 56.462C70.789 53.68 63.3798 56.462 63.3798 56.462Z" fill="#A0616A"/>
<path opacity="0.1" d="M63.3798 56.462C63.3798 56.462 64.1207 62.3969 62.4537 62.7678C60.7866 63.1387 60.0457 65.3643 60.0457 65.3643L65.6026 68.8881L71.3447 67.7754L70.789 63.5097C70.789 63.5097 69.3072 59.244 70.0481 56.462C70.789 53.68 63.3798 56.462 63.3798 56.462Z" fill="black"/>
<path d="M55.9707 125.269L57.4526 134.913C57.4526 134.913 57.0821 144.743 59.6753 153.46L62.2685 162.177L64.8618 159.209L65.6027 147.34C65.6027 147.34 65.7879 143.074 65.047 139.736L65.6027 124.156L55.9707 125.269Z" fill="#A0616A"/>
<path d="M69.6777 123.6L70.9744 140.477C70.9744 140.477 70.4187 158.468 70.2334 159.024C70.0482 159.58 73.9381 160.322 73.9381 160.322C73.9381 160.322 79.8655 146.227 78.0131 135.099C78.0131 135.099 76.9018 125.64 78.3836 123.229C79.8655 120.818 69.6777 123.6 69.6777 123.6Z" fill="#A0616A"/>
<path d="M66.5287 59.4294C70.1093 59.4294 73.0118 56.5232 73.0118 52.9382C73.0118 49.3531 70.1093 46.4469 66.5287 46.4469C62.9482 46.4469 60.0457 49.3531 60.0457 52.9382C60.0457 56.5232 62.9482 59.4294 66.5287 59.4294Z" fill="#A0616A"/>
<path d="M61.3424 64.2514C61.3424 64.2514 62.0834 67.0334 65.6027 66.8479C69.1221 66.6625 70.7892 63.5096 70.7892 63.5096C70.7892 63.5096 75.0495 65.7351 77.0871 65.5497L76.5314 74.6374C76.5314 74.6374 73.012 84.2816 73.7529 86.5072C74.4938 88.7328 89.4976 112.101 87.6452 121.189C87.6452 121.189 89.4976 123.786 82.4588 124.342C75.42 124.898 75.6052 123.6 69.8631 126.197C64.1209 128.793 56.156 127.309 54.3037 126.938C52.4513 126.568 45.9683 125.455 45.9683 125.455C45.9683 125.455 47.4501 98.006 55.9707 88.7328L55.7855 72.0409L55.0446 65.7351C55.0446 65.7351 61.0212 62.7677 61.1818 63.5096L61.3424 64.2514Z" fill="#2F2E41"/>
<path d="M88.7567 76.6776C88.7567 76.6776 98.2035 82.6125 94.4989 85.0235C90.7943 87.4346 77.5678 93.5106 77.5678 93.5106C77.5678 93.5106 67.4551 88.7328 70.0484 86.8782C72.6416 85.0235 77.0872 90.2165 77.0872 90.2165L88.5715 83.3543L85.6078 80.016L88.7567 76.6776Z" fill="#A0616A"/>
<path d="M50.2285 81.6852V108.763C50.2285 108.763 49.3024 119.149 52.8218 118.407C56.3412 117.665 53.5627 108.392 53.5627 108.392L54.6741 92.4421V83.5398L50.2285 81.6852Z" fill="#A0616A"/>
<path d="M65.4177 154.758C65.4177 154.758 63.7506 158.282 60.2312 156.242C60.2312 156.242 61.1574 159.395 61.1574 160.137C61.1574 160.879 62.0835 164.773 62.454 165.144C62.8244 165.515 62.454 173.676 64.3063 174.047C66.1586 174.418 67.8257 169.781 67.8257 168.112C67.8257 166.443 67.27 161.064 67.27 161.064C67.27 161.064 67.6404 157.54 65.6029 156.427L65.4177 154.758Z" fill="#2F2E41"/>
<path d="M75.0494 158.838L69.863 158.097L68.7516 162.548C68.7516 162.548 65.7879 170.523 65.6026 171.821C65.4174 173.119 62.0833 178.498 65.0469 178.498C68.0106 178.498 70.9743 178.683 71.53 177.014C72.0857 175.345 73.1971 169.595 74.1233 167.555C75.0494 165.515 73.7528 163.475 73.7528 163.475L75.0494 158.838Z" fill="#2F2E41"/>
<path d="M75.4199 66.2915L77.087 65.5497C77.087 65.5497 78.7541 65.5497 81.3473 68.5171C83.9405 71.4846 90.7941 77.4194 90.7941 77.4194C90.7941 77.4194 86.1633 82.0561 85.0519 81.6851C83.9405 81.3142 75.4199 73.1537 75.4199 73.1537V66.2915Z" fill="#2F2E41"/>
<path d="M55.9707 65.7352H55.0445C55.0445 65.7352 51.1547 66.1062 50.599 70.9282C50.0433 75.7503 49.1171 81.4997 48.7467 82.0561C48.3762 82.6125 53.5627 85.0236 54.4888 85.0236C55.415 85.0236 56.8969 70.5573 56.8969 70.5573L55.9707 65.7352Z" fill="#2F2E41"/>
<path d="M71.3469 49.9857H62.4247L60.4048 45.3373H72.862L71.3469 49.9857Z" fill="#2F2E41"/>
<path d="M60.3279 53.3872C60.5662 53.318 60.6102 52.7461 60.426 52.1098C60.2418 51.4735 59.8993 51.0137 59.661 51.0828C59.4227 51.152 59.3788 51.7239 59.5629 52.3602C59.7471 52.9965 60.0896 53.4563 60.3279 53.3872Z" fill="#A0616A"/>
<path d="M73.3252 52.7312C73.5093 52.0948 73.4654 51.5229 73.2271 51.4538C72.9888 51.3846 72.6463 51.8444 72.4621 52.4808C72.278 53.1171 72.3219 53.689 72.5602 53.7581C72.7985 53.8273 73.141 53.3675 73.3252 52.7312Z" fill="#A0616A"/>
<path d="M256.32 56.7281L153.89 -0.000976562L121.331 58.9359L223.761 115.665L256.32 56.7281Z" fill="#F2F2F2"/>
<path d="M157.809 48.1445H118.878V99.3218H157.809V48.1445Z" fill="#BA324F"/>
<path d="M147.083 56.2321H129.604V73.7331H147.083V56.2321Z" fill="#3F3D56"/>
<path d="M153.704 77.4454H122.983V79.5668H153.704V77.4454Z" fill="#3F3D56"/>
<path d="M153.704 83.2792H122.983V85.4005H153.704V83.2792Z" fill="#3F3D56"/>
<path d="M153.704 89.1128H122.983V91.2341H153.704V89.1128Z" fill="#3F3D56"/>
<path d="M240.437 92.9578H201.506V144.135H240.437V92.9578Z" fill="#BA324F"/>
<path d="M234.743 99.7196H207.2V102.902H234.743V99.7196Z" fill="#3F3D56"/>
<path d="M234.743 106.614H207.2V109.796H234.743V106.614Z" fill="#3F3D56"/>
<path d="M234.743 113.508H207.2V116.69H234.743V113.508Z" fill="#3F3D56"/>
<path d="M234.743 120.403H207.2V123.585H234.743V120.403Z" fill="#3F3D56"/>
<path d="M234.743 127.297H207.2V130.479H234.743V127.297Z" fill="#3F3D56"/>
<path d="M234.743 134.191H207.2V137.373H234.743V134.191Z" fill="#3F3D56"/>
<path d="M229.049 6.77832H190.119V57.9557H229.049V6.77832Z" fill="#BA324F"/>
<path d="M223.355 23.8817H195.812V27.0637H223.355V23.8817Z" fill="#3F3D56"/>
<path d="M223.355 30.776H195.812V33.958H223.355V30.776Z" fill="#3F3D56"/>
<path d="M223.355 37.6704H195.812V40.8524H223.355V37.6704Z" fill="#3F3D56"/>
<path d="M228.295 11.4406C230.892 11.4406 232.997 9.32931 232.997 6.72488C232.997 4.12046 230.892 2.00916 228.295 2.00916C225.699 2.00916 223.594 4.12046 223.594 6.72488C223.594 9.32931 225.699 11.4406 228.295 11.4406Z" fill="white"/>
<path d="M228.296 1.20557C227.184 1.20557 226.098 1.5355 225.174 2.15366C224.25 2.77181 223.53 3.65042 223.105 4.67837C222.679 5.70632 222.568 6.83744 222.785 7.92871C223.002 9.01998 223.537 10.0224 224.323 10.8091C225.108 11.5959 226.11 12.1317 227.199 12.3487C228.289 12.5658 229.419 12.4544 230.446 12.0286C231.472 11.6028 232.35 10.8818 232.967 9.95664C233.585 9.03151 233.914 7.94385 233.914 6.8312C233.91 5.34053 233.316 3.91216 232.264 2.8581C231.211 1.80403 229.784 1.20993 228.296 1.20557ZM227.142 9.83064L224.263 6.9475L225.07 6.13881L227.145 8.21596L231.524 3.83175L232.331 4.64044L227.142 9.83063V9.83064Z" fill="#57B894"/>
<path d="M240.478 96.5594C243.074 96.5594 245.179 94.4481 245.179 91.8437C245.179 89.2392 243.074 87.1279 240.478 87.1279C237.881 87.1279 235.777 89.2392 235.777 91.8437C235.777 94.4481 237.881 96.5594 240.478 96.5594Z" fill="white"/>
<path d="M240.478 86.3242C239.367 86.3242 238.28 86.6542 237.356 87.2723C236.432 87.8905 235.712 88.7691 235.287 89.797C234.862 90.825 234.751 91.9561 234.967 93.0474C235.184 94.1386 235.719 95.141 236.505 95.9278C237.291 96.7145 238.292 97.2503 239.382 97.4674C240.472 97.6845 241.601 97.5731 242.628 97.1473C243.655 96.7215 244.532 96.0004 245.15 95.0753C245.767 94.1502 246.096 93.0625 246.096 91.9499C246.092 90.4592 245.499 89.0308 244.446 87.9767C243.393 86.9227 241.967 86.3286 240.478 86.3242ZM239.324 94.9493L236.445 92.0662L237.253 91.2575L239.327 93.3346L243.706 88.9504L244.514 89.7591L239.324 94.9493Z" fill="#57B894"/>
<path d="M157.85 52.2764C160.446 52.2764 162.551 50.1651 162.551 47.5607C162.551 44.9563 160.446 42.845 157.85 42.845C155.253 42.845 153.149 44.9563 153.149 47.5607C153.149 50.1651 155.253 52.2764 157.85 52.2764Z" fill="white"/>
<path d="M157.85 42.0413C156.739 42.0413 155.652 42.3712 154.729 42.9894C153.805 43.6075 153.084 44.4861 152.659 45.5141C152.234 46.542 152.123 47.6731 152.339 48.7644C152.556 49.8557 153.091 50.8581 153.877 51.6448C154.663 52.4316 155.664 52.9674 156.754 53.1844C157.844 53.4015 158.973 53.2901 160 52.8643C161.027 52.4385 161.904 51.7175 162.522 50.7923C163.139 49.8672 163.469 48.7795 163.469 47.6669C163.464 46.1762 162.871 44.7479 161.818 43.6938C160.765 42.6397 159.339 42.0456 157.85 42.0413ZM156.697 50.6663L153.817 47.7832L154.625 46.9745L156.699 49.0517L161.078 44.6674L161.886 45.4761L156.697 50.6663V50.6663Z" fill="#57B894"/>
</g>
<defs>
<clipPath id="clip0">
<rect width="256.321" height="194" fill="white"/>
</clipPath>
</defs>
</svg>
