<svg width="315" height="194" viewBox="0 0 315 194" fill="none" xmlns="http://www.w3.org/2000/svg">
<g opacity="0.8" clip-path="url(#clip0)">
<path d="M314.998 121.321L109.856 -0.000488281L103.687 10.3907L308.829 131.712L314.998 121.321Z" fill="#F2F2F2"/>
<path d="M270.411 131.492L65.2689 10.1709L59.0994 20.5621L264.242 141.883L270.411 131.492Z" fill="#F2F2F2"/>
<path d="M230.92 142.617L25.7775 21.2959L19.608 31.6871L224.75 153.008L230.92 142.617Z" fill="#F2F2F2"/>
<path d="M181.378 142.217C216.85 142.217 245.606 113.518 245.606 78.1154C245.606 42.7129 216.85 14.0135 181.378 14.0135C145.906 14.0135 117.151 42.7129 117.151 78.1154C117.151 113.518 145.906 142.217 181.378 142.217Z" fill="#3F3D56"/>
<path opacity="0.3" d="M181.378 89.821C179.114 89.821 176.9 89.1508 175.017 87.8952C173.135 86.6396 171.667 84.855 170.8 82.767C169.934 80.679 169.707 78.3815 170.149 76.1649C170.591 73.9483 171.681 71.9122 173.282 70.3141C174.884 68.7161 176.924 67.6278 179.145 67.1869C181.366 66.7459 183.668 66.9722 185.76 67.8371C187.852 68.702 189.64 70.1666 190.898 72.0457C192.156 73.9249 192.827 76.1341 192.827 78.3942C192.824 81.4237 191.617 84.3282 189.47 86.4704C187.324 88.6126 184.414 89.8176 181.378 89.821ZM181.378 67.5247C179.224 67.5247 177.119 68.1622 175.328 69.3565C173.537 70.5509 172.141 72.2485 171.316 74.2346C170.492 76.2207 170.276 78.4062 170.697 80.5147C171.117 82.6232 172.154 84.5599 173.677 86.08C175.2 87.6001 177.141 88.6354 179.254 89.0548C181.366 89.4742 183.556 89.2589 185.546 88.4362C187.536 87.6136 189.237 86.2204 190.434 84.4329C191.63 82.6454 192.269 80.5439 192.269 78.3942C192.266 75.5124 191.117 72.7496 189.076 70.7119C187.034 68.6741 184.266 67.5279 181.378 67.5247Z" fill="#BA324F"/>
<path opacity="0.3" d="M181.378 100.133C177.07 100.133 172.859 98.8581 169.277 96.4694C165.695 94.0807 162.903 90.6856 161.255 86.7133C159.606 82.741 159.175 78.3701 160.015 74.1531C160.856 69.9362 162.93 66.0627 165.976 63.0225C169.023 59.9822 172.904 57.9118 177.129 57.073C181.354 56.2342 185.734 56.6647 189.714 58.3101C193.694 59.9554 197.096 62.7418 199.489 66.3167C201.882 69.8916 203.16 74.0946 203.16 78.3942C203.153 84.1577 200.856 89.6833 196.773 93.7587C192.69 97.8341 187.153 100.127 181.378 100.133ZM181.378 57.2127C177.181 57.2127 173.078 58.455 169.587 60.7824C166.097 63.1099 163.377 66.418 161.771 70.2884C160.165 74.1588 159.744 78.4177 160.563 82.5265C161.382 86.6353 163.403 90.4095 166.371 93.3718C169.339 96.334 173.121 98.3514 177.238 99.1687C181.355 99.986 185.622 99.5665 189.5 97.9633C193.378 96.3602 196.693 93.6453 199.025 90.162C201.357 86.6787 202.601 82.5835 202.601 78.3942C202.595 72.7784 200.357 67.3945 196.378 63.4236C192.4 59.4527 187.005 57.219 181.378 57.2127Z" fill="#BA324F"/>
<path opacity="0.3" d="M181.378 109.052C175.303 109.052 169.364 107.254 164.313 103.885C159.261 100.516 155.324 95.7281 152.999 90.1262C150.674 84.5243 150.066 78.3601 151.251 72.4132C152.436 66.4662 155.362 61.0036 159.658 56.7161C163.954 52.4285 169.427 49.5087 175.386 48.3258C181.344 47.1429 187.521 47.75 193.133 50.0704C198.746 52.3908 203.544 56.3202 206.919 61.3618C210.294 66.4034 212.096 72.3307 212.096 78.3941C212.087 86.5222 208.847 94.3146 203.089 100.062C197.33 105.809 189.522 109.042 181.378 109.052ZM181.378 48.2941C175.413 48.2941 169.582 50.0594 164.623 53.3669C159.663 56.6743 155.798 61.3753 153.515 66.8753C151.232 72.3754 150.635 78.4275 151.799 84.2663C152.962 90.1052 155.835 95.4685 160.053 99.678C164.27 103.888 169.644 106.754 175.495 107.916C181.345 109.077 187.409 108.481 192.92 106.203C198.431 103.925 203.141 100.067 206.455 95.1168C209.769 90.1669 211.537 84.3473 211.537 78.3941C211.528 70.4139 208.348 62.7631 202.694 57.1202C197.04 51.4773 189.374 48.3031 181.378 48.2941V48.2941Z" fill="#BA324F"/>
<path opacity="0.3" d="M181.378 120.757C157.974 120.757 138.932 101.753 138.932 78.3942C138.932 55.0352 157.974 36.0312 181.378 36.0312C204.783 36.0312 223.824 55.0352 223.824 78.3942C223.824 101.753 204.783 120.757 181.378 120.757ZM181.378 36.5887C158.281 36.5887 139.491 55.3425 139.491 78.3942C139.491 101.446 158.281 120.2 181.378 120.2C204.475 120.2 223.266 101.446 223.266 78.3942C223.266 55.3425 204.475 36.5887 181.378 36.5887Z" fill="#BA324F"/>
<path opacity="0.3" d="M181.378 130.512C152.584 130.512 129.158 107.132 129.158 78.3941C129.158 49.6563 152.584 26.2765 181.378 26.2765C210.172 26.2765 233.598 49.6563 233.598 78.3941C233.598 107.132 210.172 130.512 181.378 130.512ZM181.378 26.8339C152.892 26.8339 129.717 49.9637 129.717 78.3941C129.717 106.825 152.892 129.954 181.378 129.954C209.865 129.954 233.04 106.825 233.04 78.3941C233.04 49.9637 209.865 26.8339 181.378 26.8339Z" fill="#BA324F"/>
<path opacity="0.3" d="M181.378 83.4108C184.309 83.4108 186.684 81.04 186.684 78.1154C186.684 75.1909 184.309 72.8201 181.378 72.8201C178.448 72.8201 176.073 75.1909 176.073 78.1154C176.073 81.04 178.448 83.4108 181.378 83.4108Z" fill="#BA324F"/>
<path opacity="0.3" d="M195.062 98.7395C197.992 98.7395 200.367 96.3687 200.367 93.4442C200.367 90.5196 197.992 88.1488 195.062 88.1488C192.131 88.1488 189.756 90.5196 189.756 93.4442C189.756 96.3687 192.131 98.7395 195.062 98.7395Z" fill="#BA324F"/>
<path opacity="0.3" d="M157.921 96.5098C160.852 96.5098 163.227 94.139 163.227 91.2144C163.227 88.2899 160.852 85.9191 157.921 85.9191C154.991 85.9191 152.615 88.2899 152.615 91.2144C152.615 94.139 154.991 96.5098 157.921 96.5098Z" fill="#BA324F"/>
<path d="M181.378 80.6238C182.766 80.6238 183.892 79.5008 183.892 78.1155C183.892 76.7302 182.766 75.6072 181.378 75.6072C179.99 75.6072 178.865 76.7302 178.865 78.1155C178.865 79.5008 179.99 80.6238 181.378 80.6238Z" fill="#2F2E41"/>
<path d="M157.921 93.7228C159.309 93.7228 160.434 92.5998 160.434 91.2145C160.434 89.8292 159.309 88.7062 157.921 88.7062C156.533 88.7062 155.408 89.8292 155.408 91.2145C155.408 92.5998 156.533 93.7228 157.921 93.7228Z" fill="#2F2E41"/>
<path d="M195.062 96.2313C196.45 96.2313 197.575 95.1082 197.575 93.7229C197.575 92.3376 196.45 91.2146 195.062 91.2146C193.674 91.2146 192.548 92.3376 192.548 93.7229C192.548 95.1082 193.674 96.2313 195.062 96.2313Z" fill="#2F2E41"/>
<path d="M298.664 52.4747C300.052 52.4747 301.177 51.3517 301.177 49.9663C301.177 48.581 300.052 47.458 298.664 47.458C297.275 47.458 296.15 48.581 296.15 49.9663C296.15 51.3517 297.275 52.4747 298.664 52.4747Z" fill="#BA324F"/>
<path d="M181.518 78.2547H180.959V49.5483H291.822V50.1059H181.518V78.2547Z" fill="#2F2E41"/>
<path d="M298.664 57.2127C297.228 57.2127 295.824 56.7877 294.63 55.9915C293.436 55.1952 292.505 54.0635 291.956 52.7394C291.406 51.4154 291.262 49.9584 291.542 48.5527C291.823 47.1471 292.514 45.8559 293.529 44.8425C294.545 43.8291 295.839 43.1389 297.247 42.8593C298.655 42.5797 300.115 42.7232 301.442 43.2717C302.769 43.8201 303.903 44.7489 304.7 45.9406C305.498 47.1322 305.924 48.5332 305.924 49.9664C305.922 51.8876 305.156 53.7295 303.795 55.0879C302.434 56.4464 300.588 57.2106 298.664 57.2127ZM298.664 43.2775C297.338 43.2775 296.042 43.6698 294.94 44.4048C293.838 45.1398 292.979 46.1844 292.472 47.4067C291.964 48.6289 291.832 49.9738 292.09 51.2713C292.349 52.5689 292.987 53.7607 293.924 54.6962C294.862 55.6316 296.056 56.2687 297.356 56.5268C298.656 56.7849 300.004 56.6524 301.228 56.1461C302.453 55.6399 303.5 54.7825 304.236 53.6825C304.972 52.5826 305.366 51.2893 305.366 49.9664C305.363 48.193 304.657 46.4929 303.4 45.2389C302.144 43.9849 300.44 43.2795 298.664 43.2775V43.2775Z" fill="#2F2E41"/>
<path d="M281.908 124.659C283.296 124.659 284.422 123.536 284.422 122.151C284.422 120.765 283.296 119.642 281.908 119.642C280.52 119.642 279.395 120.765 279.395 122.151C279.395 123.536 280.52 124.659 281.908 124.659Z" fill="#BA324F"/>
<path d="M281.908 129.397C280.472 129.397 279.069 128.972 277.875 128.176C276.681 127.38 275.75 126.248 275.201 124.924C274.651 123.6 274.507 122.143 274.787 120.737C275.068 119.331 275.759 118.04 276.775 117.027C277.79 116.013 279.084 115.323 280.492 115.044C281.9 114.764 283.36 114.908 284.687 115.456C286.014 116.004 287.148 116.933 287.945 118.125C288.743 119.317 289.169 120.718 289.169 122.151C289.167 124.072 288.401 125.914 287.04 127.272C285.679 128.631 283.833 129.395 281.908 129.397ZM281.908 115.462C280.583 115.462 279.287 115.854 278.185 116.589C277.083 117.324 276.224 118.369 275.717 119.591C275.209 120.813 275.077 122.158 275.335 123.456C275.594 124.753 276.232 125.945 277.169 126.88C278.107 127.816 279.301 128.453 280.601 128.711C281.901 128.969 283.249 128.837 284.473 128.33C285.698 127.824 286.745 126.967 287.481 125.867C288.217 124.767 288.61 123.474 288.61 122.151C288.608 120.377 287.902 118.677 286.645 117.423C285.389 116.169 283.685 115.464 281.908 115.462Z" fill="#2F2E41"/>
<path d="M80.0104 64.1802C81.3985 64.1802 82.5237 63.0572 82.5237 61.6719C82.5237 60.2866 81.3985 59.1636 80.0104 59.1636C78.6224 59.1636 77.4972 60.2866 77.4972 61.6719C77.4972 63.0572 78.6224 64.1802 80.0104 64.1802Z" fill="#BA324F"/>
<path d="M80.0104 68.9182C78.5744 68.9182 77.1707 68.4932 75.9767 67.6969C74.7827 66.9007 73.8521 65.769 73.3026 64.4449C72.753 63.1208 72.6092 61.6638 72.8894 60.2582C73.1695 58.8525 73.861 57.5613 74.8764 56.5479C75.8918 55.5345 77.1855 54.8444 78.5939 54.5648C80.0023 54.2852 81.4622 54.4287 82.7889 54.9771C84.1156 55.5256 85.2495 56.4544 86.0473 57.646C86.8451 58.8377 87.2709 60.2387 87.2709 61.6719C87.2687 63.593 86.5031 65.4349 85.1419 66.7934C83.7808 68.1518 81.9353 68.916 80.0104 68.9182ZM80.0104 54.983C78.6849 54.983 77.3891 55.3752 76.287 56.1102C75.1848 56.8452 74.3258 57.8899 73.8185 59.1121C73.3113 60.3344 73.1786 61.6793 73.4372 62.9768C73.6958 64.2743 74.3341 65.4662 75.2714 66.4016C76.2087 67.3371 77.4028 67.9741 78.7029 68.2322C80.003 68.4903 81.3505 68.3579 82.5751 67.8516C83.7998 67.3453 84.8465 66.488 85.5829 65.388C86.3193 64.288 86.7124 62.9948 86.7124 61.6719C86.7104 59.8985 86.0036 58.1983 84.7472 56.9443C83.4908 55.6904 81.7873 54.985 80.0104 54.983V54.983Z" fill="#2F2E41"/>
<path d="M158.201 91.2147H157.642V63.0611L86.9874 61.9505L86.996 61.3933L158.201 62.5125V91.2147Z" fill="#2F2E41"/>
<path d="M274.927 122.429H194.782V93.7229H195.341V121.872H274.927V122.429Z" fill="#2F2E41"/>
<path d="M314.022 63.0654H283.305V65.0163H314.022V63.0654Z" fill="#2F2E41"/>
<path d="M314.022 68.6394H283.305V70.5904H314.022V68.6394Z" fill="#2F2E41"/>
<path d="M314.022 74.2136H283.305V76.1646H314.022V74.2136Z" fill="#2F2E41"/>
<path d="M297.267 135.25H266.55V137.201H297.267V135.25Z" fill="#2F2E41"/>
<path d="M297.267 140.824H266.55V142.775H297.267V140.824Z" fill="#2F2E41"/>
<path d="M297.267 146.398H266.55V148.349H297.267V146.398Z" fill="#2F2E41"/>
<path d="M95.3692 75.0497H64.6516V77.0006H95.3692V75.0497Z" fill="#2F2E41"/>
<path d="M95.3692 80.6238H64.6516V82.5747H95.3692V80.6238Z" fill="#2F2E41"/>
<path d="M95.3692 86.1979H64.6516V88.1488H95.3692V86.1979Z" fill="#2F2E41"/>
<path d="M183.892 184.861C217.667 184.861 245.047 183.988 245.047 182.91C245.047 181.833 217.667 180.959 183.892 180.959C150.116 180.959 122.736 181.833 122.736 182.91C122.736 183.988 150.116 184.861 183.892 184.861Z" fill="#F2F2F2"/>
<path d="M206.376 193.364H0V194H206.376V193.364Z" fill="#2F2E41"/>
<path d="M23.5648 56.9558C23.5648 56.9558 26.488 65.2594 24.6891 66.5369C22.8902 67.8144 30.7604 78.2471 30.7604 78.2471L40.2046 75.6922L35.0328 66.9627C35.0328 66.9627 34.3582 58.2333 34.3582 56.9558C34.3582 55.6784 23.5648 56.9558 23.5648 56.9558Z" fill="#FFB8B8"/>
<path opacity="0.1" d="M23.5648 56.9558C23.5648 56.9558 26.488 65.2594 24.6891 66.5369C22.8902 67.8144 30.7604 78.2471 30.7604 78.2471L40.2046 75.6922L35.0328 66.9627C35.0328 66.9627 34.3582 58.2333 34.3582 56.9558C34.3582 55.6784 23.5648 56.9558 23.5648 56.9558Z" fill="black"/>
<path d="M18.6582 116.146C18.6582 116.146 17.8049 126.791 18.6582 132.327C19.5115 137.863 20.7915 153.193 20.7915 153.193C20.7915 153.193 20.7915 182.149 25.4848 182.575C30.178 183 33.5913 183.426 34.018 181.723C34.4447 180.02 31.8847 179.168 33.1647 178.316C34.4447 177.465 34.8713 174.484 33.1647 171.077C31.458 167.671 33.1647 133.179 33.1647 133.179L41.2712 154.896C41.2712 154.896 42.1246 172.781 42.9779 175.336C43.8312 177.891 42.1246 182.575 45.1112 183C48.0978 183.426 51.5111 180.871 53.2178 180.02C54.9244 179.168 50.6578 179.168 51.5111 178.742C52.3644 178.316 54.9244 177.039 54.0711 176.613C53.2178 176.187 52.3644 155.748 52.3644 155.748C52.3644 155.748 50.0178 112.1 47.0312 110.397C44.0445 108.694 42.1246 111.628 42.1246 111.628L18.6582 116.146Z" fill="#2F2E41"/>
<path d="M26.338 180.871V184.278C26.338 184.278 22.498 193.538 26.338 193.538C30.1779 193.538 33.1646 194.498 33.1646 193.22V181.723L26.338 180.871Z" fill="#2F2E41"/>
<path d="M51.5111 180.865V184.272C51.5111 184.272 55.3511 193.532 51.5111 193.532C47.6712 193.532 44.6846 194.492 44.6846 193.214V181.717L51.5111 180.865Z" fill="#2F2E41"/>
<path d="M29.5379 63.1304C33.7794 63.1304 37.2178 59.6987 37.2178 55.4655C37.2178 51.2323 33.7794 47.8007 29.5379 47.8007C25.2964 47.8007 21.858 51.2323 21.858 55.4655C21.858 59.6987 25.2964 63.1304 29.5379 63.1304Z" fill="#FFB8B8"/>
<path d="M27.1915 69.7307C27.1915 69.7307 29.3248 76.1181 32.7381 74.8406L36.1513 73.5632L42.1246 114.442C42.1246 114.442 37.4313 121.256 30.6047 116.997C23.7782 112.739 27.1915 69.7307 27.1915 69.7307Z" fill="#D0CDE1"/>
<path d="M33.1647 68.4531L35.0846 64.4077C35.0846 64.4077 46.3912 69.7306 48.0978 71.4338C49.8045 73.1371 49.8045 75.6921 49.8045 75.6921L46.8178 86.3378C46.8178 86.3378 47.6712 109.758 47.6712 110.61C47.6712 111.462 50.6578 116.146 48.5245 114.442C46.3912 112.739 45.9645 111.036 44.2579 113.591C42.5512 116.146 38.7113 119.126 38.7113 119.126L33.1647 68.4531Z" fill="#3F3D56"/>
<path d="M48.0979 99.1127L46.8179 111.036C46.8179 111.036 39.138 117.849 40.8446 118.275C42.5513 118.701 43.4046 116.997 43.4046 116.997C43.4046 116.997 46.3912 119.978 48.0979 118.275C49.8045 116.572 54.0711 100.39 54.0711 100.39L48.0979 99.1127Z" fill="#FFB8B8"/>
<path d="M29.7016 44.6329C27.999 44.5721 26.1771 44.5421 24.7416 45.4577C24.0811 45.9173 23.5018 46.4833 23.0274 47.1325C21.6293 48.8964 20.4213 51.1159 20.9406 53.3045L21.5438 53.0697C21.5438 53.6539 21.4137 54.2308 21.1628 54.7586C21.2478 54.5121 21.5322 54.9106 21.4561 55.1599L20.7916 57.3354C21.0662 57.251 21.3554 57.2251 21.6407 57.2593C21.9259 57.2935 22.2008 57.387 22.4475 57.534C22.6942 57.6809 22.9072 57.8779 23.0728 58.1122C23.2384 58.3464 23.3529 58.6128 23.4088 58.8941C23.4848 56.3672 23.7474 53.4697 25.8012 51.9901C26.837 51.2439 28.1478 51.0161 29.409 50.8139C30.5725 50.6273 31.7922 50.4493 32.9066 50.8316C34.021 51.2139 34.97 52.3514 34.7173 53.5001C35.2312 53.3235 35.8059 53.6809 36.0598 54.1604C36.275 54.6608 36.3692 55.2046 36.3347 55.7481C36.8825 56.1344 37.5058 55.3672 37.729 54.736C38.253 53.2543 38.7188 51.677 38.4365 50.1312C38.1542 48.5854 36.8921 47.1081 35.3177 47.1028C35.5088 46.8933 35.6108 46.6179 35.602 46.3347L34.3044 46.2253C34.6338 46.1787 34.9368 46.0193 35.1614 45.7743C34.6404 46.3465 30.5441 44.6629 29.7016 44.6329Z" fill="#2F2E41"/>
<path d="M29.3247 67.1757C29.3247 67.1757 25.8514 63.7788 24.6014 63.9868C23.3514 64.1949 21.6448 67.1757 21.6448 67.1757C21.6448 67.1757 11.4049 70.5823 11.8316 73.9889C12.2582 77.3956 16.9515 94.0028 16.9515 94.0028C16.9515 94.0028 20.7915 114.017 17.3782 116.146C13.9649 118.275 33.5913 123.811 34.018 121.256C34.4446 118.701 35.298 93.1511 34.018 89.3187C32.738 85.4862 29.3247 67.1757 29.3247 67.1757Z" fill="#3F3D56"/>
<path d="M15.6715 102.945L21.6448 105.5C21.6448 105.5 33.1646 107.203 33.1646 102.519C33.1646 97.8351 21.6448 100.39 21.6448 100.39L17.8046 99.1647L15.6715 102.945Z" fill="#FFB8B8"/>
<path d="M44.2578 73.9889H49.5335C49.5335 73.9889 53.2177 90.1703 53.6444 91.8736C54.071 93.5769 54.9243 101.668 54.4977 101.668C54.071 101.668 45.5378 99.9643 45.5378 101.242L44.2578 73.9889Z" fill="#3F3D56"/>
<path d="M16.9515 71.434L11.8316 72.7114L7.99166 95.2802C7.99166 95.2802 6.71168 101.242 8.84498 101.668C10.9783 102.093 16.9516 105.5 16.9516 105.5C16.9516 105.5 17.8049 99.1127 19.5115 99.1127L15.2449 95.7061L17.8049 80.8021L16.9515 71.434Z" fill="#3F3D56"/>
<path d="M162.107 180.968H153.826V172.703H162.107V180.968ZM154.463 180.332H161.47V173.339H154.463V180.332Z" fill="#3F3D56"/>
<path d="M167.203 180.968C168.961 180.968 170.387 179.545 170.387 177.789C170.387 176.034 168.961 174.611 167.203 174.611C165.444 174.611 164.018 176.034 164.018 177.789C164.018 179.545 165.444 180.968 167.203 180.968Z" fill="#BA324F"/>
</g>
<defs>
<clipPath id="clip0">
<rect width="315" height="194" fill="white"/>
</clipPath>
</defs>
</svg>
