<svg width="629" height="533" viewBox="0 0 629 533" fill="none" xmlns="http://www.w3.org/2000/svg">
<path d="M506.017 43.4469C511.529 43.4469 515.997 38.9784 515.997 33.4663C515.997 27.9542 511.529 23.4857 506.017 23.4857C500.506 23.4857 496.038 27.9542 496.038 33.4663C496.038 38.9784 500.506 43.4469 506.017 43.4469Z" fill="#F1F1F1"/>
<path d="M447.175 429.669C452.687 429.669 457.155 425.201 457.155 419.688C457.155 414.176 452.687 409.708 447.175 409.708C441.664 409.708 437.196 414.176 437.196 419.688C437.196 425.201 441.664 429.669 447.175 429.669Z" fill="#F1F1F1"/>
<path d="M198.957 139.495C204.469 139.495 208.937 135.027 208.937 129.515C208.937 124.002 204.469 119.534 198.957 119.534C193.445 119.534 188.977 124.002 188.977 129.515C188.977 135.027 193.445 139.495 198.957 139.495Z" fill="#F1F1F1"/>
<path d="M106.186 533C164.831 533 212.372 526.035 212.372 517.443C212.372 508.851 164.831 501.886 106.186 501.886C47.5411 501.886 0 508.851 0 517.443C0 526.035 47.5411 533 106.186 533Z" fill="#F1F1F1"/>
<path d="M162.279 405.145L188.937 396.793C187.462 385.706 184.094 374.954 178.98 365.006L152.322 373.358C158.578 382.8 162.03 393.821 162.279 405.145Z" fill="#BA324F"/>
<path d="M98.2053 205.051C111.951 205.051 123.095 193.907 123.095 180.16C123.095 166.413 111.951 155.269 98.2053 155.269C84.4593 155.269 73.3159 166.413 73.3159 180.16C73.3159 193.907 84.4593 205.051 98.2053 205.051Z" fill="#2F2E41"/>
<path d="M71.3543 492.078L66.6199 512.37H78.1177L82.8521 489.372L71.3543 492.078Z" fill="#9F616A"/>
<path d="M126.814 492.078V511.017L138.312 512.37V492.078H126.814Z" fill="#9F616A"/>
<path d="M67.9727 276.984C67.9727 276.984 69.3253 306.069 70.678 308.098C72.0307 310.128 84.2049 339.213 84.2049 339.213L90.292 320.273C90.292 320.273 80.8232 304.716 82.1759 295.923C83.5286 287.13 82.6764 276.31 82.6764 276.31L67.9727 276.984Z" fill="#9F616A"/>
<path d="M106.524 206.639C116.983 206.639 125.462 198.16 125.462 187.7C125.462 177.24 116.983 168.761 106.524 168.761C96.0651 168.761 87.5864 177.24 87.5864 187.7C87.5864 198.16 96.0651 206.639 106.524 206.639Z" fill="#9F616A"/>
<path d="M90.9683 189.729C90.9683 189.729 91.6447 216.785 86.9103 220.843C82.1759 224.902 113.964 221.52 113.964 221.52C113.964 221.52 107.201 202.581 112.611 198.522C118.022 194.464 90.9683 189.729 90.9683 189.729Z" fill="#9F616A"/>
<path d="M115.993 220.167C115.993 220.167 111.935 212.727 106.524 213.403C101.113 214.079 83.5285 215.432 82.8522 216.785C82.1758 218.138 80.1468 222.872 78.7941 224.225C77.4414 225.578 67.2963 227.607 66.6199 235.724C65.9436 243.841 90.9683 293.218 90.9683 293.218C90.9683 293.218 87.5866 304.716 88.2629 307.422C88.9393 310.127 84.8812 318.244 85.5575 321.626C86.2339 325.008 75.4124 345.3 80.8231 371.68V414.292C80.8231 414.292 62.5618 488.02 67.9726 493.431C73.3834 498.842 91.6446 495.46 95.0264 493.431C98.4081 491.402 112.611 389.266 112.611 389.266L119.375 354.77L120.051 430.526C120.051 430.526 118.698 494.107 123.433 496.136C128.167 498.165 146.429 498.842 147.781 494.784C148.836 491.618 154.005 407.401 156.229 370.485C157 357.742 155.998 344.955 153.251 332.488C150.436 319.719 146.35 304.717 141.694 298.629C132.902 287.13 127.491 250.605 127.491 250.605L138.989 229.636C138.989 229.636 132.225 222.872 128.167 222.872C124.109 222.872 115.993 220.167 115.993 220.167Z" fill="#2F2E41"/>
<path d="M70.6778 230.989L67.1111 233.417C67.1111 233.417 64.5907 276.984 66.6198 279.69C68.6488 282.395 82.7555 281.075 83.8183 278.691C84.8811 276.308 70.6778 230.989 70.6778 230.989Z" fill="#2F2E41"/>
<path d="M126.138 271.573C126.138 271.573 126.815 299.982 130.873 308.098C134.931 316.215 149.81 350.035 149.81 350.035C149.81 350.035 148.947 387.258 156.48 378.116C164.013 368.974 159.279 347.329 159.279 347.329L146.429 297.276C146.429 297.276 139.665 274.955 140.341 268.191C141.018 261.427 126.138 271.573 126.138 271.573Z" fill="#9F616A"/>
<path d="M138.312 500.059C138.312 500.059 138.989 499.518 141.018 501.548C143.047 503.577 148.458 506.282 147.781 513.723C147.105 521.163 143.047 522.516 143.047 522.516V520.487H141.018V523.869C141.018 523.869 137.636 534.691 122.08 527.927C122.08 527.927 121.404 522.516 122.08 519.134C122.756 515.752 122.756 499.518 124.786 500.195C126.815 500.871 132.225 501.548 133.578 504.253C134.931 506.959 138.989 506.011 138.312 500.059Z" fill="#2F2E41"/>
<path d="M68.649 500.735C68.649 500.735 67.9726 500.195 65.9436 502.224C63.9146 504.253 58.5038 506.959 59.1802 514.399C59.8565 521.839 63.9146 523.192 63.9146 523.192V521.163H65.9436V524.545C65.9436 524.545 69.3253 535.367 84.8813 528.603C84.8813 528.603 85.5576 523.192 84.8813 519.81C84.2049 516.428 84.2049 500.195 82.1759 500.871C80.1468 501.548 74.7361 502.224 73.3834 504.93C72.0307 507.635 67.9726 506.687 68.649 500.735Z" fill="#2F2E41"/>
<path d="M129.52 227.607L138.989 229.636C138.989 229.636 138.989 244.517 141.694 250.605C144.4 256.692 149.134 270.897 147.105 271.573C145.076 272.249 126.138 281.719 124.786 276.308C123.433 270.897 120.051 227.607 129.52 227.607Z" fill="#2F2E41"/>
<path d="M71.2419 172.278C84.9879 172.278 96.1312 161.134 96.1312 147.386C96.1312 133.639 84.9879 122.495 71.2419 122.495C57.4959 122.495 46.3525 133.639 46.3525 147.386C46.3525 161.134 57.4959 172.278 71.2419 172.278Z" fill="#2F2E41"/>
<path d="M49.7733 167.998C52.9948 170.327 56.727 171.85 60.6577 172.44C64.5885 173.03 68.6034 172.67 72.3666 171.391C76.1298 170.111 79.5318 167.949 82.2881 165.085C85.0443 162.22 87.0746 158.738 88.2091 154.928C87.7798 158.342 86.6474 161.63 84.8834 164.585C83.1194 167.539 80.762 170.096 77.9601 172.093C75.1582 174.09 71.9727 175.485 68.6047 176.189C65.2367 176.893 61.7593 176.891 58.3921 176.183C55.0249 175.475 51.841 174.076 49.0415 172.076C46.242 170.075 43.8877 167.516 42.1271 164.559C40.3666 161.603 39.2381 158.313 38.8129 154.899C38.3877 151.484 38.675 148.018 39.6567 144.72C39.0991 149.151 39.7442 153.65 41.5242 157.746C43.3042 161.842 46.1536 165.383 49.7733 167.998Z" fill="#2F2E41"/>
<path d="M91.5681 202.562C101.649 202.562 109.82 194.39 109.82 184.308C109.82 174.227 101.649 166.055 91.5681 166.055C81.4877 166.055 73.3159 174.227 73.3159 184.308C73.3159 194.39 81.4877 202.562 91.5681 202.562Z" fill="#2F2E41"/>
<path d="M106.917 190.116C115.852 190.116 123.095 184.451 123.095 177.463C123.095 170.475 115.852 164.81 106.917 164.81C97.9817 164.81 90.7385 170.475 90.7385 177.463C90.7385 184.451 97.9817 190.116 106.917 190.116Z" fill="#2F2E41"/>
<path d="M111.232 195.862C112.927 195.862 114.302 193.429 114.302 190.429C114.302 187.428 112.927 184.996 111.232 184.996C109.536 184.996 108.161 187.428 108.161 190.429C108.161 193.429 109.536 195.862 111.232 195.862Z" fill="#A0616A"/>
<path d="M620.642 118.533L274.733 14.6534L191.286 292.567L537.194 396.447L620.642 118.533Z" fill="#F1F1F1"/>
<path d="M413.358 95.9758L495.29 129.096" stroke="#3F3D56" stroke-width="2" stroke-miterlimit="10"/>
<path d="M415.44 102.785L416.667 102.212L413.839 96.1713L420.071 93.7918L419.586 92.5276L411.997 95.4273L415.44 102.785Z" fill="#3F3D56"/>
<path d="M489.062 132.545L488.577 131.281L494.809 128.902L491.981 122.861L493.208 122.288L496.65 129.647L489.062 132.545Z" fill="#3F3D56"/>
<path d="M454.324 119.976C458.433 119.976 461.764 116.645 461.764 112.536C461.764 108.426 458.433 105.095 454.324 105.095C450.215 105.095 446.884 108.426 446.884 112.536C446.884 116.645 450.215 119.976 454.324 119.976Z" fill="#3F3D56"/>
<path d="M407.114 325.584L482.596 279.622" stroke="#3F3D56" stroke-width="2" stroke-miterlimit="10"/>
<path d="M413.82 327.978L414.092 326.652L407.558 325.315L409.369 318.894L408.066 318.528L405.862 326.348L413.82 327.978Z" fill="#3F3D56"/>
<path d="M481.645 286.679L480.342 286.312L482.154 279.893L475.619 278.555L475.892 277.229L483.85 278.86L481.645 286.679Z" fill="#3F3D56"/>
<path d="M444.855 310.043C448.964 310.043 452.295 306.712 452.295 302.603C452.295 298.494 448.964 295.163 444.855 295.163C440.746 295.163 437.416 298.494 437.416 302.603C437.416 306.712 440.746 310.043 444.855 310.043Z" fill="#3F3D56"/>
<path d="M312.279 179.951L312.305 268.331" stroke="#3F3D56" stroke-width="2" stroke-miterlimit="10"/>
<path d="M306.748 184.436L307.739 185.358L312.278 180.471L316.821 185.355L317.811 184.432L312.277 178.484L306.748 184.436Z" fill="#3F3D56"/>
<path d="M306.771 263.85L307.762 262.927L312.304 267.812L316.844 262.924L317.835 263.847L312.305 269.797L306.771 263.85Z" fill="#3F3D56"/>
<path d="M312.292 231.581C316.401 231.581 319.732 228.25 319.732 224.141C319.732 220.032 316.401 216.701 312.292 216.701C308.183 216.701 304.852 220.032 304.852 224.141C304.852 228.25 308.183 231.581 312.292 231.581Z" fill="#3F3D56"/>
<path d="M372.666 0H249.571V152.865H372.666V0Z" fill="#3F3D56"/>
<path d="M303.422 56.9082H275.487C273.58 45.8866 273.58 34.6195 275.487 23.598H303.422C300.275 34.4783 300.275 46.0278 303.422 56.9082Z" fill="#FF6584"/>
<path d="M318.814 73.8031H346.75C348.656 62.7815 348.656 51.5144 346.75 40.4928H318.814C321.962 51.3732 321.962 62.9227 318.814 73.8031Z" fill="#BA324F"/>
<path d="M292.437 129.268H320.372C322.279 118.246 322.279 106.979 320.372 95.9573H292.437C295.584 106.838 295.584 118.387 292.437 129.268Z" fill="#BA324F"/>
<path d="M629 145.425H505.905V298.291H629V145.425Z" fill="#3F3D56"/>
<path d="M611.415 177.892H523.49V181.951H611.415V177.892Z" fill="#BA324F"/>
<path d="M611.415 192.096H523.49V196.155H611.415V192.096Z" fill="#BA324F"/>
<path d="M611.415 206.301H523.49V210.359H611.415V206.301Z" fill="#BA324F"/>
<path d="M611.415 220.505H523.49V224.563H611.415V220.505Z" fill="#BA324F"/>
<path d="M611.415 234.709H523.49V238.768H611.415V234.709Z" fill="#BA324F"/>
<path d="M590.448 249.59H544.457V265.824H590.448V249.59Z" fill="#BA324F"/>
<path d="M383.487 302.349H260.393V455.214H383.487V302.349Z" fill="#3F3D56"/>
<path d="M366.103 387.444H278.178V391.502H366.103V387.444Z" fill="#BA324F"/>
<path d="M366.103 401.648H278.178V405.706H366.103V401.648Z" fill="#BA324F"/>
<path d="M366.103 415.852H278.178V419.911H366.103V415.852Z" fill="#BA324F"/>
<path d="M366.103 430.057H278.178V434.115H366.103V430.057Z" fill="#BA324F"/>
<path opacity="0.3" d="M305.113 356.759H277.178C275.271 345.737 275.271 334.47 277.178 323.448H305.113C301.966 334.329 301.966 345.878 305.113 356.759Z" fill="#BA324F"/>
<path opacity="0.3" d="M368.132 326.568H316.729V329.95H368.132V326.568Z" fill="#BA324F"/>
<path opacity="0.3" d="M368.132 338.743H316.729V342.125H368.132V338.743Z" fill="#BA324F"/>
<path opacity="0.3" d="M368.132 350.918H316.729V354.3H368.132V350.918Z" fill="#BA324F"/>
<path opacity="0.3" d="M368.132 363.094H316.729V366.475H368.132V363.094Z" fill="#BA324F"/>
</svg>
