<svg width="681" height="352" viewBox="0 0 681 352" fill="none" xmlns="http://www.w3.org/2000/svg">
<g opacity="0.7">
<path opacity="0.7" d="M517.641 0H162.658C159.616 0.0111395 156.702 1.23022 154.558 3.38925C152.414 5.54827 151.215 8.47053 151.224 11.5136V255.894C151.215 258.937 152.414 261.86 154.558 264.019C156.702 266.178 159.616 267.397 162.658 267.408H284.748V309.592H279.182C278.418 309.594 277.661 309.748 276.957 310.043C276.252 310.338 275.612 310.769 275.074 311.311C274.535 311.854 274.109 312.497 273.819 313.204C273.529 313.911 273.381 314.668 273.384 315.433V323.896H284.748V328.903H395.551V323.896H406.915V315.433C406.917 314.668 406.77 313.911 406.48 313.204C406.19 312.497 405.764 311.854 405.225 311.311C404.687 310.769 404.047 310.338 403.342 310.043C402.637 309.748 401.881 309.594 401.117 309.592H395.881V309.227H395.523V267.408H517.641C520.683 267.397 523.597 266.178 525.741 264.019C527.885 261.86 529.084 258.937 529.075 255.894V11.5136C529.084 8.47053 527.885 5.54827 525.741 3.38925C523.597 1.23022 520.683 0.0111395 517.641 0Z" fill="url(#paint0_linear)"/>
</g>
<path d="M395.18 260.143H285.82V324.653H395.18V260.143Z" fill="#BDBDBD"/>
<g opacity="0.1">
<path opacity="0.1" d="M287.972 266.454H393.245C394.514 260.936 395.53 257.339 395.53 257.339H285.47C285.47 257.339 286.598 260.922 287.972 266.454Z" fill="black"/>
</g>
<path d="M165.315 2.10364H515.685C518.679 2.10364 521.549 3.29304 523.666 5.41018C525.783 7.52732 526.972 10.3988 526.972 13.3929V229.291H154.028V13.3929C154.028 10.3988 155.217 7.52732 157.334 5.41018C159.451 3.29304 162.321 2.10364 165.315 2.10364Z" fill="#535461"/>
<path d="M515.685 264.351H165.315C162.321 264.351 159.451 263.161 157.334 261.044C155.217 258.927 154.028 256.055 154.028 253.061V229.291H526.972V253.061C526.972 256.055 525.783 258.927 523.666 261.044C521.549 263.161 518.679 264.351 515.685 264.351Z" fill="#BDBDBD"/>
<path d="M340.5 253.132C343.984 253.132 346.809 250.306 346.809 246.821C346.809 243.335 343.984 240.51 340.5 240.51C337.016 240.51 334.191 243.335 334.191 246.821C334.191 250.306 337.016 253.132 340.5 253.132Z" fill="#535461"/>
<path d="M280.331 305.721H400.669C402.188 305.721 403.644 306.325 404.719 307.399C405.793 308.473 406.396 309.931 406.396 311.45V319.745H274.604V311.45C274.604 310.698 274.752 309.953 275.04 309.258C275.328 308.563 275.75 307.931 276.282 307.399C276.813 306.867 277.445 306.445 278.14 306.157C278.834 305.869 279.579 305.721 280.331 305.721Z" fill="#BDBDBD"/>
<g opacity="0.5">
<path opacity="0.5" d="M453.014 49.869H227.986C226.244 49.869 224.832 51.2817 224.832 53.0244V178.37C224.832 180.113 226.244 181.525 227.986 181.525H453.014C454.756 181.525 456.169 180.113 456.169 178.37V53.0244C456.169 51.2817 454.756 49.869 453.014 49.869Z" fill="url(#paint1_linear)"/>
</g>
<path d="M450.049 50.8367H230.951C229.209 50.8367 227.797 52.2494 227.797 53.992V176.673C227.797 178.416 229.209 179.829 230.951 179.829H450.049C451.791 179.829 453.203 178.416 453.203 176.673V53.992C453.203 52.2494 451.791 50.8367 450.049 50.8367Z" fill="white"/>
<g opacity="0.5">
<path opacity="0.5" d="M312.277 69.3552H293.742C292 69.3552 290.587 70.7679 290.587 72.5106V88.568C290.587 90.3106 292 91.7233 293.742 91.7233H312.277C314.019 91.7233 315.431 90.3106 315.431 88.568V72.5106C315.431 70.7679 314.019 69.3552 312.277 69.3552Z" fill="#BA324F"/>
</g>
<path d="M388.723 69.3552H324.124C323.439 69.3552 322.883 69.9109 322.883 70.5963C322.883 71.2818 323.439 71.8374 324.124 71.8374H388.723C389.409 71.8374 389.964 71.2818 389.964 70.5963C389.964 69.9109 389.409 69.3552 388.723 69.3552Z" fill="#E0E0E0"/>
<path d="M377.402 76.8159H324.124C323.439 76.8159 322.883 77.3716 322.883 78.057C322.883 78.7425 323.439 79.2981 324.124 79.2981H377.402C378.087 79.2981 378.643 78.7425 378.643 78.057C378.643 77.3716 378.087 76.8159 377.402 76.8159Z" fill="#E0E0E0"/>
<g opacity="0.5">
<path opacity="0.5" d="M312.277 104.149H293.742C292 104.149 290.587 105.561 290.587 107.304V123.361C290.587 125.104 292 126.517 293.742 126.517H312.277C314.019 126.517 315.431 125.104 315.431 123.361V107.304C315.431 105.561 314.019 104.149 312.277 104.149Z" fill="#BA324F"/>
</g>
<path d="M388.723 104.149H324.124C323.439 104.149 322.883 104.704 322.883 105.39C322.883 106.075 323.439 106.631 324.124 106.631H388.723C389.409 106.631 389.964 106.075 389.964 105.39C389.964 104.704 389.409 104.149 388.723 104.149Z" fill="#E0E0E0"/>
<path d="M388.723 111.602H324.124C323.439 111.602 322.883 112.158 322.883 112.843C322.883 113.529 323.439 114.084 324.124 114.084H388.723C389.409 114.084 389.964 113.529 389.964 112.843C389.964 112.158 389.409 111.602 388.723 111.602Z" fill="#E0E0E0"/>
<g opacity="0.5">
<path opacity="0.5" d="M312.277 138.942H293.742C292 138.942 290.587 140.354 290.587 142.097V158.155C290.587 159.897 292 161.31 293.742 161.31H312.277C314.019 161.31 315.431 159.897 315.431 158.155V142.097C315.431 140.354 314.019 138.942 312.277 138.942Z" fill="#BA324F"/>
</g>
<path d="M388.723 138.942H324.124C323.439 138.942 322.883 139.497 322.883 140.183C322.883 140.868 323.439 141.424 324.124 141.424H388.723C389.409 141.424 389.964 140.868 389.964 140.183C389.964 139.497 389.409 138.942 388.723 138.942Z" fill="#E0E0E0"/>
<path d="M389.298 146.396H323.998C323.382 146.396 322.883 146.895 322.883 147.51V147.763C322.883 148.379 323.382 148.878 323.998 148.878H389.298C389.914 148.878 390.413 148.379 390.413 147.763V147.51C390.413 146.895 389.914 146.396 389.298 146.396Z" fill="#E0E0E0"/>
<path d="M340.5 29.4502V14.0239" stroke="#BA324F" stroke-width="2" stroke-miterlimit="10"/>
<path d="M340.5 55.3944V35.1509" stroke="#BA324F" stroke-width="2" stroke-miterlimit="10"/>
<path d="M340.5 58.1992C342.049 58.1992 343.304 56.9434 343.304 55.3944C343.304 53.8453 342.049 52.5896 340.5 52.5896C338.951 52.5896 337.696 53.8453 337.696 55.3944C337.696 56.9434 338.951 58.1992 340.5 58.1992Z" fill="#BA324F"/>
<path d="M340.5 35.0598C342.049 35.0598 343.304 33.804 343.304 32.255C343.304 30.7059 342.049 29.4502 340.5 29.4502C338.951 29.4502 337.696 30.7059 337.696 32.255C337.696 33.804 338.951 35.0598 340.5 35.0598Z" stroke="white" stroke-miterlimit="10"/>
<path d="M340.5 29.4502V14.0239" stroke="#BA324F" stroke-width="2" stroke-miterlimit="10"/>
<path d="M340.5 55.3944V35.1509" stroke="#BA324F" stroke-width="2" stroke-miterlimit="10"/>
<path d="M340.5 58.1992C342.049 58.1992 343.304 56.9434 343.304 55.3944C343.304 53.8453 342.049 52.5896 340.5 52.5896C338.951 52.5896 337.696 53.8453 337.696 55.3944C337.696 56.9434 338.951 58.1992 340.5 58.1992Z" fill="#BA324F"/>
<path d="M340.5 35.0598C342.049 35.0598 343.304 33.804 343.304 32.255C343.304 30.7059 342.049 29.4502 340.5 29.4502C338.951 29.4502 337.696 30.7059 337.696 32.255C337.696 33.804 338.951 35.0598 340.5 35.0598Z" stroke="white" stroke-miterlimit="10"/>
<path d="M340.5 195.633V217.37" stroke="#BA324F" stroke-width="2" stroke-miterlimit="10"/>
<path d="M340.5 176V196.243" stroke="#BA324F" stroke-width="2" stroke-miterlimit="10"/>
<path d="M340.5 178.805C342.049 178.805 343.304 177.549 343.304 176C343.304 174.451 342.049 173.195 340.5 173.195C338.951 173.195 337.696 174.451 337.696 176C337.696 177.549 338.951 178.805 340.5 178.805Z" fill="#BA324F"/>
<path d="M214.316 118.151H192.234" stroke="#BA324F" stroke-width="2" stroke-miterlimit="10"/>
<path d="M233.594 118.151H213.356" stroke="#BA324F" stroke-width="2" stroke-miterlimit="10"/>
<path d="M233.594 120.956C235.143 120.956 236.398 119.7 236.398 118.151C236.398 116.602 235.143 115.347 233.594 115.347C232.046 115.347 230.79 116.602 230.79 118.151C230.79 119.7 232.046 120.956 233.594 120.956Z" fill="#BA324F"/>
<g opacity="0.1">
<path opacity="0.1" d="M395.53 305.37H286.171V307.474H395.53V305.37Z" fill="black"/>
</g>
<g opacity="0.7">
<path opacity="0.7" d="M125.623 257.381H74.8691L75.5701 251.673C89.913 238.792 99.1875 204.475 99.1875 204.475C98.9817 204.504 98.7779 204.546 98.5776 204.602C90.1654 206.299 84.1786 209.755 79.9936 213.914L81.7741 198.726C108.273 193.018 118.781 157.958 118.781 157.958C101.872 161.71 91.3291 167.515 84.7815 173.027L87.3893 150.715C105.307 156.864 123.842 124.196 123.842 124.196L123.141 124.048L123.492 123.824L122.959 124.013C103.155 119.743 92.5699 131.067 89.1349 135.772L89.3943 133.585C88.8708 134.987 88.3614 136.361 87.866 137.708V137.764C86.464 141.564 85.1811 145.318 84.0174 149.025C83.0033 152.19 82.0546 155.322 81.1713 158.421V158.379C81.1713 158.379 80.3511 138.423 59.3134 133.171C59.3134 133.171 61.5217 176.694 78.1919 169.57C76.6497 175.881 75.3878 181.953 74.2943 187.85C73.5979 191.688 72.9904 195.428 72.4716 199.069L72.3735 199.181L72.4716 199.097L72.4295 199.385C71.9622 202.69 71.5649 205.911 71.2378 209.047C71.5603 203.003 70.4597 185.543 49.8917 169.135C49.8917 169.135 22.5519 217.195 69.1698 226.633C69.2749 226.724 69.3801 226.816 69.4782 226.9L69.4081 226.682L69.8288 226.773L70.018 224.305C69.456 234.607 69.5099 244.933 70.1793 255.228C70.2283 255.929 70.2774 256.63 70.3265 257.297H18.9907C-0.595842 297.819 29.8705 320.025 29.8705 320.025H113.993C146.661 278.837 125.623 257.381 125.623 257.381Z" fill="url(#paint2_linear)"/>
</g>
<path opacity="0.6" d="M72.0089 272.765C72.0089 272.765 58.6894 214.566 88.1323 139.538" stroke="#535461" stroke-width="3" stroke-miterlimit="10"/>
<path d="M20.1333 255.235H123.183C123.183 255.235 143.513 281.179 111.967 319.745H30.6486C30.6486 319.745 1.20572 293.1 20.1333 255.235Z" fill="#BA324F"/>
<path d="M86.6533 143.394C86.6533 143.394 96.8952 125.163 121.431 130.773C121.431 130.773 101.15 165.314 82.8748 154.003L86.6533 143.394Z" fill="#4DB6AC"/>
<path d="M80.1618 162.74C80.1618 162.74 79.3696 144.096 59.04 139.187C59.04 139.187 61.1431 179.857 77.2666 173.195L80.1618 162.74Z" fill="#4DB6AC"/>
<path d="M73.516 190.276C73.516 190.276 77.2665 170.741 116.524 162.327C116.524 162.327 104.003 202.73 71.7074 201.11L73.516 190.276Z" fill="#4DB6AC"/>
<path d="M70.3335 212.203C70.3335 212.203 74.4625 191.777 49.9268 172.845C49.9268 172.845 23.288 218.191 69.1908 226.717L70.3335 212.203Z" fill="#4DB6AC"/>
<path d="M69.5974 240.279C69.5974 240.279 66.7513 211.41 97.5962 205.801C97.5962 205.801 86.3308 246.112 69.5553 253.3L69.5974 240.279Z" fill="#4DB6AC"/>
<path opacity="0.3" d="M83.2252 154.263C83.2252 154.263 109.864 133.928 121.08 130.422" stroke="#535461" stroke-miterlimit="10"/>
<path opacity="0.3" d="M71.6584 200.892C71.6584 200.892 103.905 166.534 116.524 162.327" stroke="#535461" stroke-miterlimit="10"/>
<path opacity="0.3" d="M59.04 139.187C59.04 139.187 78.6686 165.833 77.2666 172.845" stroke="#535461" stroke-miterlimit="10"/>
<path opacity="0.3" d="M49.9268 172.845C49.9268 172.845 60.4421 220.526 68.8543 226.837" stroke="#535461" stroke-miterlimit="10"/>
<path opacity="0.3" d="M69.5553 253.482C69.5553 253.482 86.3798 207.203 97.5961 205.801" stroke="#535461" stroke-miterlimit="10"/>
<g opacity="0.1">
<path opacity="0.1" d="M123.184 255.235H20.1334C19.9021 255.705 19.6777 256.175 19.4324 256.637H119.678C119.678 256.637 139.51 281.958 109.584 319.745H111.967C143.513 281.179 123.184 255.235 123.184 255.235Z" fill="black"/>
</g>
<path d="M681 319.465H0V342.555H681V319.465Z" fill="#E0E0E0"/>
<path d="M652.139 342.555H28.854V352H652.139V342.555Z" fill="#E0E0E0"/>
<path opacity="0.1" d="M652.139 342.555H28.854V345.703H652.139V342.555Z" fill="black"/>
<path d="M483.859 118.151H488.065" stroke="#BA324F" stroke-width="2" stroke-miterlimit="10"/>
<path d="M446.705 118.151H478.167" stroke="#BA324F" stroke-width="2" stroke-miterlimit="10"/>
<path d="M446.705 120.956C448.253 120.956 449.509 119.7 449.509 118.151C449.509 116.602 448.253 115.347 446.705 115.347C445.156 115.347 443.901 116.602 443.901 118.151C443.901 119.7 445.156 120.956 446.705 120.956Z" fill="#BA324F"/>
<path d="M481.055 120.956C482.603 120.956 483.859 119.7 483.859 118.151C483.859 116.602 482.603 115.347 481.055 115.347C479.506 115.347 478.251 116.602 478.251 118.151C478.251 119.7 479.506 120.956 481.055 120.956Z" stroke="white" stroke-miterlimit="10"/>
<g opacity="0.7">
<path opacity="0.7" d="M639.836 311.948L639.906 311.843C640.051 311.618 640.193 311.384 640.334 311.141L640.411 311.008C640.546 310.779 640.675 310.545 640.796 310.307L640.859 310.188C641 309.914 641.133 309.641 641.252 309.353C641.504 308.779 641.724 308.192 641.911 307.593L641.981 307.362C642.044 307.145 642.107 306.927 642.163 306.71L642.233 306.401C642.28 306.205 642.322 306.006 642.36 305.805C642.36 305.693 642.402 305.581 642.423 305.469C642.444 305.357 642.486 305.076 642.514 304.873C642.542 304.669 642.514 304.641 642.556 304.529C642.598 304.417 642.598 304.101 642.612 303.884C642.612 303.786 642.612 303.681 642.612 303.582C642.612 303.267 642.612 302.944 642.612 302.629V244.717H632.903V216.333H620.985V244.717H612.769V203.95H600.852V244.717H596.373V198.123H584.455V244.717H573.94V302.636C573.94 312.088 581.798 319.745 591.465 319.745H625.114C627.865 319.756 630.581 319.124 633.044 317.899C635.508 316.674 637.651 314.891 639.303 312.691C639.476 312.443 639.654 312.196 639.836 311.948Z" fill="url(#paint3_linear)"/>
</g>
<path d="M597.074 225.084H585.857V295.203H597.074V225.084Z" fill="#535461"/>
<path d="M597.074 201.944H585.857V225.084H597.074V201.944Z" fill="#3AD29F"/>
<path d="M612.496 230.693H601.28V300.813H612.496V230.693Z" fill="#535461"/>
<path d="M612.496 207.554H601.28V230.693H612.496V207.554Z" fill="#4D8AF0"/>
<path d="M631.424 242.614H620.208V312.733H631.424V242.614Z" fill="#535461"/>
<path d="M631.424 219.474H620.208V242.614H631.424V219.474Z" fill="#F55F44"/>
<path d="M576.043 246.821H640.537V302.566C640.537 306.936 638.801 311.127 635.712 314.217C632.622 317.308 628.432 319.044 624.063 319.044H592.517C588.148 319.044 583.958 317.308 580.868 314.217C577.779 311.127 576.043 306.936 576.043 302.566V246.821Z" fill="#BA324F"/>
<g opacity="0.1">
<path opacity="0.1" d="M576.043 246.821V249.625H637.733V305.37C637.739 309.055 636.504 312.634 634.228 315.531C636.195 313.991 637.786 312.023 638.879 309.777C639.972 307.53 640.539 305.064 640.537 302.566V246.821H576.043Z" fill="black"/>
</g>
<defs>
<linearGradient id="paint0_linear" x1="340.149" y1="328.896" x2="340.149" y2="0" gradientUnits="userSpaceOnUse">
<stop stop-color="#808080" stop-opacity="0.25"/>
<stop offset="0.54" stop-color="#808080" stop-opacity="0.12"/>
<stop offset="1" stop-color="#808080" stop-opacity="0.1"/>
</linearGradient>
<linearGradient id="paint1_linear" x1="112590" y1="34133.1" x2="112590" y2="9413.27" gradientUnits="userSpaceOnUse">
<stop stop-color="#808080" stop-opacity="0.25"/>
<stop offset="0.54" stop-color="#808080" stop-opacity="0.12"/>
<stop offset="1" stop-color="#808080" stop-opacity="0.1"/>
</linearGradient>
<linearGradient id="paint2_linear" x1="15834.8" y1="101556" x2="36331.9" y2="101556" gradientUnits="userSpaceOnUse">
<stop stop-color="#808080" stop-opacity="0.25"/>
<stop offset="0.54" stop-color="#808080" stop-opacity="0.12"/>
<stop offset="1" stop-color="#808080" stop-opacity="0.1"/>
</linearGradient>
<linearGradient id="paint3_linear" x1="64644.9" y1="69313.8" x2="71374.7" y2="69313.8" gradientUnits="userSpaceOnUse">
<stop stop-color="#808080" stop-opacity="0.25"/>
<stop offset="0.54" stop-color="#808080" stop-opacity="0.12"/>
<stop offset="1" stop-color="#808080" stop-opacity="0.1"/>
</linearGradient>
</defs>
</svg>
